<svg width="192" height="192" viewBox="0 0 192 192" fill="none" xmlns="http://www.w3.org/2000/svg">
<rect width="192" height="192" rx="24" fill="#3B82F6"/>
<path d="M48 64C48 55.1634 55.1634 48 64 48H128C136.837 48 144 55.1634 144 64V80H48V64Z" fill="white"/>
<path d="M48 96H144V128C144 136.837 136.837 144 128 144H64C55.1634 144 48 136.837 48 128V96Z" fill="white"/>
<circle cx="128" cy="64" r="8" fill="#3B82F6"/>
<circle cx="96" cy="64" r="4" fill="#3B82F6"/>
<circle cx="64" cy="64" r="4" fill="#3B82F6"/>
<path d="M64 112H96V120H64V112Z" fill="#3B82F6"/>
<path d="M64 128H128V136H64V128Z" fill="#3B82F6"/>
<path d="M104 112H128V120H104V112Z" fill="#3B82F6"/>
</svg>
